HIERARCHY
ROOT hip
{
	OFFSET 0.000000 0.000000 0.000000
	CHANNELS 6 Xposition Yposition Zposition Xrotation Zrotation Yrotation 
	JOINT abdomen
	{
		OFFSET 0.000000 3.422050 0.000000
		CHANNELS 3 Xrotation Zrotation Yrotation 
		JOINT chest
		{
			OFFSET 0.000000 8.486693 -0.684411
			CHANNELS 3 Xrotation Zrotation Yrotation 
			JOINT neck
			{
				OFFSET 0.000000 10.266162 -0.273764
				CHANNELS 3 Xrotation Zrotation Yrotation 
				JOINT head
				{
					OFFSET 0.000000 3.148285 0.000000
					CHANNELS 3 Xrotation Zrotation Yrotation 
					End Site
					{
						OFFSET 0.000000 3.148289 0.000000
					}
				}
			}
			JOINT lCollar
			{
				OFFSET 3.422053 6.707223 -0.821293
				CHANNELS 3 Yrotation Zrotation Xrotation 
				JOINT lShldr
				{
					OFFSET 3.285171 0.000000 0.000000
					CHANNELS 3 Zrotation Yrotation Xrotation 
					JOINT lForeArm
					{
						OFFSET 10.129278 0.000000 0.000000
						CHANNELS 3 Yrotation Zrotation Xrotation 
						JOINT lHand
						{
							OFFSET 8.486692 0.000000 0.000000
							CHANNELS 3 Zrotation Yrotation Xrotation 
							End Site
							{
								OFFSET 4.106464 0.000000 0.000000
							}
						}
					}
				}
			}
			JOINT rCollar
			{
				OFFSET -3.558935 6.707223 -0.821293
				CHANNELS 3 Yrotation Zrotation Xrotation 
				JOINT rShldr
				{
					OFFSET -3.148289 0.000000 0.000000
					CHANNELS 3 Zrotation Yrotation Xrotation 
					JOINT rForeArm
					{
						OFFSET -10.266159 0.000000 0.000000
						CHANNELS 3 Yrotation Zrotation Xrotation 
						JOINT rHand
						{
							OFFSET -8.349810 0.000000 0.000000
							CHANNELS 3 Zrotation Yrotation Xrotation 
							End Site
							{
								OFFSET -4.106464 0.000000 0.000000
							}
						}
					}
				}
			}
		}
	}
	JOINT lThigh
	{
		OFFSET 5.338403 -1.642589 1.368821
		CHANNELS 3 Xrotation Zrotation Yrotation 
		JOINT lShin
		{
			OFFSET -2.053232 -20.121670 0.000000
			CHANNELS 3 Xrotation Zrotation Yrotation 
			JOINT lFoot
			{
				OFFSET 0.000000 -19.300380 -1.231939
				CHANNELS 3 Xrotation Yrotation Zrotation 
				End Site
				{
					OFFSET 0.000000 -2.463878 4.653993
				}
			}
		}
	}
	JOINT rThigh
	{
		OFFSET -5.338403 -1.642589 1.368821
		CHANNELS 3 Xrotation Zrotation Yrotation 
		JOINT rShin
		{
			OFFSET 2.053232 -20.121670 0.000000
			CHANNELS 3 Xrotation Zrotation Yrotation 
			JOINT rFoot
			{
				OFFSET 0.000000 -19.300380 -1.231939
				CHANNELS 3 Xrotation Yrotation Zrotation 
				End Site
				{
					OFFSET 0.000000 -2.463878 4.653993
				}
			}
		}
	}
}
MOTION
Frames: 15
Frame Time: 0.033325
0.000000 43.528500 0.000000 0.000000 0.000000 0.000000 0.000000 0.000000 0.000000 0.000000 0.000000 0.000000 0.000000 0.000000 0.000000 0.000000 0.000000 0.000000 0.000000 0.000000 0.000000 0.000000 0.000000 0.000000 0.000000 0.000000 0.000000 0.000000 0.000000 0.000000 0.000000 0.000000 0.000000 0.000000 0.000000 0.000000 0.000000 0.000000 0.000000 0.000000 0.000000 0.000000 0.000000 0.000000 0.000000 0.000000 0.000000 0.000000 0.000000 0.000000 0.000000 0.000000 0.000000 0.000000 0.000000 0.000000 0.000000 0.000000 0.000000 0.000000 
-2.748417 21.718348 0.000000 0.000000 -90.000000 0.000000 0.000000 13.982904 0.000000 10.996041 0.000000 0.000000 33.996475 3.999812 -0.000738 -10.002296 -26.000475 -7.001418 15.990306 -3.995259 0.135582 -115.264267 -49.033100 118.136589 -64.612808 0.327357 -23.004108 -49.000526 -34.004044 -3.000293 0.000000 0.000000 0.000000 88.992561 50.003056 79.994095 61.996944 -0.001254 -27.001600 40.999832 3.999997 -3.000768 -58.351673 -1.607489 -5.701221 100.241821 -1.286885 0.175166 19.047087 -0.892091 -0.086157 -67.907051 5.502690 -2.759583 108.301964 3.538697 -0.677731 6.809635 0.567152 -1.037464 
-2.748417 21.718348 0.000000 0.000000 -90.000000 0.000000 0.000000 13.982904 0.000000 10.996042 0.000000 0.000000 33.996475 3.999813 -0.000738 -10.002296 -26.000475 -7.001418 15.990306 -3.995259 0.135582 -115.264282 -49.033104 118.136589 -64.612808 0.327358 -23.004110 -49.000526 -34.004044 -3.000293 0.000000 0.000000 0.000000 88.992561 50.003052 79.994095 61.996944 -0.001254 -27.001600 40.999836 3.999998 -3.000768 -58.351681 -1.607490 -5.701221 100.241829 -1.286885 0.175166 19.047089 -0.892091 -0.086157 -67.907059 5.502690 -2.759583 108.301964 3.538697 -0.677731 6.809635 0.567152 -1.037464 
-2.748417 21.718348 0.000000 0.000000 -90.000000 0.000000 0.000000 13.982904 0.000000 10.996041 0.000000 0.000000 33.996475 3.999812 -0.000738 -10.002295 -26.000473 -7.001418 15.990306 -3.995259 0.135582 -115.264252 -49.033092 118.136581 -64.612808 0.327358 -23.004108 -49.000526 -34.004044 -3.000293 0.000000 0.000000 0.000000 88.992561 50.003056 79.994095 61.996944 -0.001255 -27.001600 40.999828 3.999997 -3.000767 -58.351673 -1.607489 -5.701220 100.241821 -1.286884 0.175166 19.047087 -0.892090 -0.086157 -67.907051 5.502689 -2.759583 108.301964 3.538697 -0.677731 6.809634 0.567152 -1.037464 
-2.748417 21.718348 0.000000 0.000000 -90.000000 0.000000 0.000000 13.982904 0.000000 10.996041 0.000000 0.000000 33.996475 3.999812 -0.000738 -10.002297 -26.000475 -7.001418 15.990306 -3.995259 0.135582 -115.264267 -49.033100 118.136589 -64.612808 0.327357 -23.004108 -49.000526 -34.004044 -3.000293 0.000000 0.000000 0.000000 88.992561 50.003056 79.994095 61.996944 -0.001254 -27.001600 40.999840 3.999997 -3.000768 -58.351673 -1.607489 -5.701221 100.241821 -1.286885 0.175166 19.047087 -0.892091 -0.086157 -67.907051 5.502690 -2.759583 108.301964 3.538697 -0.677731 6.809635 0.567152 -1.037464 
-2.748417 21.718348 0.000000 0.000000 -90.000000 0.000000 0.000000 13.982904 0.000000 10.996041 0.000000 0.000000 33.996475 3.999812 -0.000738 -10.002297 -26.000475 -7.001418 15.990306 -3.995259 0.135582 -115.264267 -49.033104 118.136604 -64.612808 0.327357 -23.004108 -49.000530 -34.004044 -3.000293 0.000000 0.000000 0.000000 88.992561 50.003056 79.994095 61.996944 -0.001254 -27.001600 40.999840 3.999997 -3.000768 -58.351673 -1.607489 -5.701221 100.241821 -1.286885 0.175166 19.047089 -0.892091 -0.086157 -67.907051 5.502691 -2.759583 108.301964 3.538698 -0.677731 6.809635 0.567152 -1.037464 
-2.748417 21.718348 0.000000 0.000000 -90.000000 0.000000 0.000000 13.982904 0.000000 10.996041 0.000000 0.000000 33.996475 3.999812 -0.000738 -10.002296 -26.000473 -7.001418 15.990306 -3.995259 0.135582 -115.264267 -49.033100 118.136581 -64.612808 0.327358 -23.004108 -49.000526 -34.004044 -3.000293 0.000000 0.000000 0.000000 88.992561 50.003056 79.994095 61.996944 -0.001254 -27.001600 40.999832 3.999997 -3.000767 -58.351673 -1.607489 -5.701220 100.241821 -1.286884 0.175166 19.047087 -0.892091 -0.086157 -67.907051 5.502690 -2.759583 108.301964 3.538697 -0.677731 6.809635 0.567152 -1.037464 
-2.748417 21.718348 0.000000 0.000000 -90.000000 0.000000 0.000000 13.982904 0.000000 10.996042 0.000000 0.000000 33.996475 3.999812 -0.000738 -10.002296 -26.000477 -7.001418 15.990306 -3.995259 0.135582 -115.264267 -49.033100 118.136589 -64.612808 0.327357 -23.004108 -49.000526 -34.004044 -3.000293 0.000000 0.000000 0.000000 88.992561 50.003056 79.994095 61.996944 -0.001254 -27.001600 40.999832 3.999997 -3.000768 -58.351681 -1.607489 -5.701221 100.241821 -1.286885 0.175166 19.047087 -0.892091 -0.086157 -67.907051 5.502690 -2.759583 108.301964 3.538697 -0.677731 6.809635 0.567152 -1.037464 
-2.748417 21.718348 0.000000 0.000000 -90.000000 0.000000 0.000000 13.982904 0.000000 10.996042 0.000000 0.000000 33.996475 3.999812 -0.000738 -10.002296 -26.000477 -7.001418 15.990306 -3.995259 0.135582 -115.264267 -49.033100 118.136581 -64.612808 0.327357 -23.004110 -49.000526 -34.004047 -3.000297 0.000000 0.000000 0.000000 88.992561 50.003056 79.994095 61.996944 -0.001254 -27.001602 40.999836 3.999997 -3.000768 -58.351681 -1.607490 -5.701221 100.241821 -1.286885 0.175166 19.047089 -0.892091 -0.086157 -67.907051 5.502690 -2.759583 108.301964 3.538697 -0.677731 6.809635 0.567152 -1.037464 
-2.748417 21.718348 0.000000 0.000000 -90.000000 0.000000 0.000000 13.982903 0.000000 10.996041 0.000000 0.000000 33.996475 3.999812 -0.000738 -10.002295 -26.000475 -7.001418 15.990306 -3.995259 0.135582 -115.264267 -49.033100 118.136589 -64.612808 0.327357 -23.004108 -49.000519 -34.004044 -3.000295 0.000000 0.000000 0.000000 88.992561 50.003056 79.994095 61.996944 -0.001254 -27.001600 40.999828 3.999997 -3.000767 -58.351673 -1.607489 -5.701221 100.241821 -1.286885 0.175166 19.047087 -0.892091 -0.086157 -67.907051 5.502690 -2.759583 108.301949 3.538697 -0.677731 6.809634 0.567152 -1.037464 
-2.748417 21.718348 0.000000 0.000000 -90.000000 0.000000 0.000000 13.982904 0.000000 10.996041 0.000000 0.000000 33.996475 3.999812 -0.000738 -10.002296 -26.000475 -7.001418 15.990306 -3.995259 0.135582 -115.264267 -49.033100 118.136589 -64.612808 0.327357 -23.004108 -49.000526 -34.004044 -3.000293 0.000000 0.000000 0.000000 88.992561 50.003056 79.994095 61.996944 -0.001254 -27.001600 40.999832 3.999997 -3.000768 -58.351673 -1.607489 -5.701221 100.241821 -1.286885 0.175166 19.047087 -0.892091 -0.086157 -67.907051 5.502690 -2.759583 108.301964 3.538697 -0.677731 6.809635 0.567152 -1.037464 
-2.748417 21.718348 0.000000 0.000000 -90.000000 0.000000 0.000000 13.982904 0.000000 10.996041 0.000000 0.000000 33.996475 3.999812 -0.000738 -10.002295 -26.000473 -7.001418 15.990306 -3.995258 0.135582 -115.264267 -49.033100 118.136589 -64.612808 0.327356 -23.004107 -49.000519 -34.004044 -3.000295 0.000000 0.000000 0.000000 88.992554 50.003044 79.994087 61.996944 -0.001255 -27.001600 40.999832 3.999997 -3.000768 -58.351673 -1.607489 -5.701220 100.241814 -1.286884 0.175166 19.047087 -0.892090 -0.086157 -67.907051 5.502690 -2.759583 108.301949 3.538697 -0.677731 6.809634 0.567152 -1.037464 
-2.748417 21.718348 0.000000 0.000000 -90.000000 0.000000 0.000000 13.982903 0.000000 10.996041 0.000000 0.000000 33.996475 3.999812 -0.000738 -10.002296 -26.000475 -7.001418 15.990306 -3.995259 0.135582 -115.264267 -49.033100 118.136589 -64.612808 0.327357 -23.004108 -49.000526 -34.004044 -3.000293 0.000000 0.000000 0.000000 88.992554 50.003044 79.994087 61.996944 -0.001255 -27.001600 40.999832 3.999997 -3.000767 -58.351673 -1.607489 -5.701221 100.241821 -1.286884 0.175166 19.047087 -0.892091 -0.086157 -67.907051 5.502690 -2.759583 108.301964 3.538697 -0.677731 6.809635 0.567152 -1.037464 
-2.748417 21.718348 0.000000 0.000000 -90.000000 0.000000 0.000000 13.982904 0.000000 10.996042 0.000000 0.000000 33.996475 3.999812 -0.000738 -10.002296 -26.000475 -7.001418 15.990306 -3.995259 0.135582 -115.264267 -49.033100 118.136589 -64.612808 0.327357 -23.004108 -49.000530 -34.004044 -3.000295 0.000000 0.000000 0.000000 88.992561 50.003056 79.994095 61.996944 -0.001254 -27.001600 40.999832 3.999997 -3.000768 -58.351681 -1.607490 -5.701221 100.241821 -1.286885 0.175166 19.047089 -0.892091 -0.086157 -67.907051 5.502690 -2.759583 108.301964 3.538697 -0.677731 6.809635 0.567152 -1.037464 
-2.748417 21.718348 0.000000 0.000000 -90.000000 0.000000 0.000000 13.982904 0.000000 10.996042 0.000000 0.000000 33.996475 3.999812 -0.000738 -10.002296 -26.000477 -7.001418 15.990306 -3.995259 0.135582 -115.264252 -49.033100 118.136589 -64.612808 0.327357 -23.004110 -49.000526 -34.004044 -3.000293 0.000000 0.000000 0.000000 88.992561 50.003052 79.994095 61.996944 -0.001254 -27.001600 40.999836 3.999997 -3.000768 -58.351681 -1.607490 -5.701221 100.241821 -1.286885 0.175166 19.047087 -0.892091 -0.086157 -67.907051 5.502691 -2.759583 108.301964 3.538697 -0.677731 6.809635 0.567152 -1.037464 
